# xmcd
#
# Track frame offsets:
#	150
#	14582
#	28447
#	42319
#	55557
#	69276
#	83794
#	99068
#	111669
#	126468
#	141289
#	155539
#	169080
#	182926
#	197461
#	212557
#	227836
#	242498
#	257007
#	272781
#	288207
#	302753
#	318197
#	333261
#
# Disc length: 4637 seconds
#
# Revision: 0
# Processed by: cddbd v1.5.2PL0 Copyright (c) Steve Scherf et al.
# Submitted via: audiograbber 1.83.01
#
DISCID=56121b18
DTITLE=Sonny Boy Williamson - The Original Sonny Boy Williamson - The Early Yea
DTITLE=rs - 1938
DYEAR=2007
DGENRE=Blues
TTITLE0=Yank Rachell - I'm Wild And Crazy As Can Be
TTITLE1=Sonny Boy Williamson - Honey Bee Blues
TTITLE2=Sonny Boy Williamson - My Baby I've Been Your Slave
TTITLE3=Sonny Boy Williamson - Whiskey Headed Blues
TTITLE4=Sonny Boy Williamson - Lord, Oh Lord Blues
TTITLE5=Sonny Boy Williamson - You Give An Account
TTITLE6=Sonny Boy Williamson - Shannon Street Blues
TTITLE7=Sonny Boy Williamson - You've Been Follin' Round Town
TTITLE8=Sonny Boy Williamson - Deep Dpwn In The Ground
TTITLE9=Yank Rachell - When You Feel Down And Out
TTITLE10=Yank Rachell - Texas Tommy
TTITLE11=Yank Rachell - It's All Over
TTITLE12=Yank Rachell - My Mind Got Bad
TTITLE13=Jackson' Joe Williams - Get Your Head Trimmed Down
TTITLE14=Jackson' Joe Williams - Peach Orchard Mama
TTITLE15=Jackson' Joe Williams - Haven't Ween No Whiskey
TTITLE16=Jackson' Joe Williams - Goin' Up The Mountain
TTITLE17=Speckled Red - You Got To Fix It
TTITLE18=Sonny Boy Williamson - Number Five Blues
TTITLE19=Sonny Boy Williamson - Christmas Morning Blues
TTITLE20=Sonny Boy Williamson - Susie-Q
TTITLE21=Sonny Boy Williamson - Blue Bird Blues - Part 2
TTITLE22=Sonny Boy Williamson - Little Girl Blues
TTITLE23=Sonny Boy Williamson - Low Down Ways
EXTD=
EXTT0=
EXTT1=
EXTT2=
EXTT3=
EXTT4=
EXTT5=
EXTT6=
EXTT7=
EXTT8=
EXTT9=
EXTT10=
EXTT11=
EXTT12=
EXTT13=
EXTT14=
EXTT15=
EXTT16=
EXTT17=
EXTT18=
EXTT19=
EXTT20=
EXTT21=
EXTT22=
EXTT23=
PLAYORDER=
